{
  "version": "1.1.6",
  "modules": [
    {
      "id": 11,
      "plugin": "AudibleInstruments",
      "version": "1.5.0",
      "model": "Braids",
      "params": [
        {
          "id": 0,
          "value": 0.0
        },
        {
          "id": 1,
          "value": -1.0
        },
        {
          "id": 2,
          "value": 0.0
        },
        {
          "id": 3,
          "value": 0.563499689
        },
        {
          "id": 4,
          "value": 0.0
        },
        {
          "id": 5,
          "value": 0.5
        },
        {
          "id": 6,
          "value": 0.307499886
        }
      ],
      "leftModuleId": 68,
      "rightModuleId": 96,
      "data": {
        "settings": [
          14,
          0,
          0,
          0,
          0,
          0,
          0,
          0,
          0,
          0,
          0,
          0,
          0,
          0,
          0,
          0,
          0,
          0,
          0,
          0
        ],
        "lowCpu": true
      },
      "pos": [
        39,
        0
      ]
    },
    {
      "id": 12,
      "plugin": "AudibleInstruments",
      "version": "1.5.0",
      "model": "Ripples",
      "params": [
        {
          "id": 0,
          "value": 0.72100091
        },
        {
          "id": 1,
          "value": 9.55396652
        },
        {
          "id": 2,
          "value": 0.0
        }
      ],
      "leftModuleId": 98,
      "rightModuleId": 22,
      "pos": [
        97,
        0
      ]
    },
    {
      "id": 16,
      "plugin": "Core",
      "version": "1.1.6",
      "model": "AudioInterface",
      "params": [],
      "rightModuleId": 86,
      "data": {
        "audio": {
          "driver": 8,
          "deviceName": "Altoparlanti (Realtek High Definition Audio)",
          "offset": 0,
          "maxChannels": 8,
          "sampleRate": 44100,
          "blockSize": 4096
        }
      },
      "pos": [
        10,
        2
      ]
    },
    {
      "id": 22,
      "plugin": "AudibleInstruments",
      "version": "1.5.0",
      "model": "Clouds",
      "params": [
        {
          "id": 0,
          "value": 0.0
        },
        {
          "id": 1,
          "value": 0.0
        },
        {
          "id": 2,
          "value": 0.0
        },
        {
          "id": 3,
          "value": 0.433999926
        },
        {
          "id": 4,
          "value": 0.0
        },
        {
          "id": 5,
          "value": 0.0
        },
        {
          "id": 6,
          "value": 0.720499873
        },
        {
          "id": 7,
          "value": 0.779500484
        },
        {
          "id": 8,
          "value": 0.0539999902
        },
        {
          "id": 9,
          "value": 1.0
        },
        {
          "id": 10,
          "value": 0.0
        },
        {
          "id": 11,
          "value": 0.0
        },
        {
          "id": 12,
          "value": 0.523499846
        }
      ],
      "leftModuleId": 12,
      "rightModuleId": 136,
      "data": {
        "playback": 0,
        "quality": 0,
        "blendMode": 3
      },
      "pos": [
        105,
        0
      ]
    },
    {
      "id": 43,
      "plugin": "MindMeldModular",
      "version": "1.1.14",
      "model": "MixMasterJr",
      "params": [
        {
          "id": 0,
          "value": 0.857695878
        },
        {
          "id": 1,
          "value": 0.857695878
        },
        {
          "id": 2,
          "value": 0.857695878
        },
        {
          "id": 3,
          "value": 1.0
        },
        {
          "id": 4,
          "value": 1.0
        },
        {
          "id": 5,
          "value": 1.0
        },
        {
          "id": 6,
          "value": 1.0
        },
        {
          "id": 7,
          "value": 1.0
        },
        {
          "id": 8,
          "value": 1.0
        },
        {
          "id": 9,
          "value": 1.0
        },
        {
          "id": 10,
          "value": 0.0
        },
        {
          "id": 11,
          "value": 0.0
        },
        {
          "id": 12,
          "value": 0.0
        },
        {
          "id": 13,
          "value": 0.5255
        },
        {
          "id": 14,
          "value": 0.5
        },
        {
          "id": 15,
          "value": 0.5
        },
        {
          "id": 16,
          "value": 0.5
        },
        {
          "id": 17,
          "value": 0.5
        },
        {
          "id": 18,
          "value": 0.5
        },
        {
          "id": 19,
          "value": 0.5
        },
        {
          "id": 20,
          "value": 0.0
        },
        {
          "id": 21,
          "value": 0.0
        },
        {
          "id": 22,
          "value": 0.0
        },
        {
          "id": 23,
          "value": 0.0
        },
        {
          "id": 24,
          "value": 0.0
        },
        {
          "id": 25,
          "value": 0.0
        },
        {
          "id": 26,
          "value": 0.0
        },
        {
          "id": 27,
          "value": 0.0
        },
        {
          "id": 28,
          "value": 0.0
        },
        {
          "id": 29,
          "value": 0.0
        },
        {
          "id": 30,
          "value": 0.0
        },
        {
          "id": 31,
          "value": 0.0
        },
        {
          "id": 32,
          "value": 0.0
        },
        {
          "id": 33,
          "value": 0.0
        },
        {
          "id": 34,
          "value": 0.0
        },
        {
          "id": 35,
          "value": 0.0
        },
        {
          "id": 36,
          "value": 0.0
        },
        {
          "id": 37,
          "value": 0.0
        },
        {
          "id": 38,
          "value": 0.0
        },
        {
          "id": 39,
          "value": 0.0
        },
        {
          "id": 40,
          "value": 0.0
        },
        {
          "id": 41,
          "value": 0.0
        },
        {
          "id": 42,
          "value": 0.0
        },
        {
          "id": 43,
          "value": 0.923522055
        },
        {
          "id": 44,
          "value": 0.0
        },
        {
          "id": 45,
          "value": 0.0
        },
        {
          "id": 46,
          "value": 0.0
        },
        {
          "id": 47,
          "value": 0.0
        },
        {
          "id": 48,
          "value": 0.0
        },
        {
          "id": 49,
          "value": 0.0
        },
        {
          "id": 50,
          "value": 0.0
        },
        {
          "id": 51,
          "value": 0.0
        },
        {
          "id": 52,
          "value": 13.0
        },
        {
          "id": 53,
          "value": 13.0
        },
        {
          "id": 54,
          "value": 13.0
        },
        {
          "id": 55,
          "value": 13.0
        },
        {
          "id": 56,
          "value": 13.0
        },
        {
          "id": 57,
          "value": 13.0
        },
        {
          "id": 58,
          "value": 13.0
        },
        {
          "id": 59,
          "value": 13.0
        },
        {
          "id": 60,
          "value": 20010.0
        },
        {
          "id": 61,
          "value": 20010.0
        },
        {
          "id": 62,
          "value": 20010.0
        },
        {
          "id": 63,
          "value": 20010.0
        },
        {
          "id": 64,
          "value": 20010.0
        },
        {
          "id": 65,
          "value": 20010.0
        },
        {
          "id": 66,
          "value": 20010.0
        },
        {
          "id": 67,
          "value": 20010.0
        },
        {
          "id": 68,
          "value": 13.0
        },
        {
          "id": 69,
          "value": 13.0
        },
        {
          "id": 70,
          "value": 20010.0
        },
        {
          "id": 71,
          "value": 20010.0
        }
      ],
      "leftModuleId": 86,
      "rightModuleId": 121,
      "data": {
        "trackLabels": "-01--02--03--04--05--06--07--08-GRP1GRP2",
        "panLawMono": 1,
        "panLawStereo": 1,
        "directOutsMode": 3,
        "directOutsSkipGroupedTracks": 0,
        "auxSendsMode": 3,
        "groupsControlTrackSendLevels": 0,
        "auxReturnsMutedWhenMainSolo": 0,
        "auxReturnsSolosMuteDry": 0,
        "chainMode": 0,
        "colorAndCloak": 117440512,
        "symmetricalFade": false,
        "fadeCvOutsWithVolCv": false,
        "linkBitMask": 0,
        "filterPos": 1,
        "groupedAuxReturnFeedbackProtection": 1,
        "ecoMode": 65535,
        "faders": [
          0.857695878,
          0.857695878,
          0.857695878,
          1.0,
          1.0,
          1.0,
          1.0,
          1.0,
          1.0,
          1.0
        ],
        "momentaryCvButtons": 1,
        "masterFaderScalesSends": 0,
        "linearVolCvInputs": 0,
        "id_t0_gainAdjust": 1.0,
        "id_t0_fadeRate": 0.0,
        "id_t0_fadeProfile": 0.0,
        "id_t0_directOutsMode": 3,
        "id_t0_auxSendsMode": 3,
        "id_t0_panLawStereo": 1,
        "id_t0_vuColorThemeLocal": 0,
        "id_t0_filterPos": 1,
        "id_t0_dispColorLocal": 0,
        "id_t0_polyStereo": 0,
        "id_t0_panCvLevel": 1.0,
        "id_t0_stereoWidth": 1.0,
        "id_t0_invertInput": 0,
        "id_t1_gainAdjust": 1.0,
        "id_t1_fadeRate": 0.0,
        "id_t1_fadeProfile": 0.0,
        "id_t1_directOutsMode": 3,
        "id_t1_auxSendsMode": 3,
        "id_t1_panLawStereo": 1,
        "id_t1_vuColorThemeLocal": 0,
        "id_t1_filterPos": 1,
        "id_t1_dispColorLocal": 0,
        "id_t1_polyStereo": 0,
        "id_t1_panCvLevel": 1.0,
        "id_t1_stereoWidth": 1.0,
        "id_t1_invertInput": 0,
        "id_t2_gainAdjust": 1.0,
        "id_t2_fadeRate": 0.0,
        "id_t2_fadeProfile": 0.0,
        "id_t2_directOutsMode": 3,
        "id_t2_auxSendsMode": 3,
        "id_t2_panLawStereo": 1,
        "id_t2_vuColorThemeLocal": 0,
        "id_t2_filterPos": 1,
        "id_t2_dispColorLocal": 0,
        "id_t2_polyStereo": 0,
        "id_t2_panCvLevel": 1.0,
        "id_t2_stereoWidth": 1.0,
        "id_t2_invertInput": 0,
        "id_t3_gainAdjust": 1.0,
        "id_t3_fadeRate": 0.0,
        "id_t3_fadeProfile": 0.0,
        "id_t3_directOutsMode": 3,
        "id_t3_auxSendsMode": 3,
        "id_t3_panLawStereo": 1,
        "id_t3_vuColorThemeLocal": 0,
        "id_t3_filterPos": 1,
        "id_t3_dispColorLocal": 0,
        "id_t3_polyStereo": 0,
        "id_t3_panCvLevel": 1.0,
        "id_t3_stereoWidth": 1.0,
        "id_t3_invertInput": 0,
        "id_t4_gainAdjust": 1.0,
        "id_t4_fadeRate": 0.0,
        "id_t4_fadeProfile": 0.0,
        "id_t4_directOutsMode": 3,
        "id_t4_auxSendsMode": 3,
        "id_t4_panLawStereo": 1,
        "id_t4_vuColorThemeLocal": 0,
        "id_t4_filterPos": 1,
        "id_t4_dispColorLocal": 0,
        "id_t4_polyStereo": 0,
        "id_t4_panCvLevel": 1.0,
        "id_t4_stereoWidth": 1.0,
        "id_t4_invertInput": 0,
        "id_t5_gainAdjust": 1.0,
        "id_t5_fadeRate": 0.0,
        "id_t5_fadeProfile": 0.0,
        "id_t5_directOutsMode": 3,
        "id_t5_auxSendsMode": 3,
        "id_t5_panLawStereo": 1,
        "id_t5_vuColorThemeLocal": 0,
        "id_t5_filterPos": 1,
        "id_t5_dispColorLocal": 0,
        "id_t5_polyStereo": 0,
        "id_t5_panCvLevel": 1.0,
        "id_t5_stereoWidth": 1.0,
        "id_t5_invertInput": 0,
        "id_t6_gainAdjust": 1.0,
        "id_t6_fadeRate": 0.0,
        "id_t6_fadeProfile": 0.0,
        "id_t6_directOutsMode": 3,
        "id_t6_auxSendsMode": 3,
        "id_t6_panLawStereo": 1,
        "id_t6_vuColorThemeLocal": 0,
        "id_t6_filterPos": 1,
        "id_t6_dispColorLocal": 0,
        "id_t6_polyStereo": 0,
        "id_t6_panCvLevel": 1.0,
        "id_t6_stereoWidth": 1.0,
        "id_t6_invertInput": 0,
        "id_t7_gainAdjust": 1.0,
        "id_t7_fadeRate": 0.0,
        "id_t7_fadeProfile": 0.0,
        "id_t7_directOutsMode": 3,
        "id_t7_auxSendsMode": 3,
        "id_t7_panLawStereo": 1,
        "id_t7_vuColorThemeLocal": 0,
        "id_t7_filterPos": 1,
        "id_t7_dispColorLocal": 0,
        "id_t7_polyStereo": 0,
        "id_t7_panCvLevel": 1.0,
        "id_t7_stereoWidth": 1.0,
        "id_t7_invertInput": 0,
        "id_g0_fadeRate": 0.0,
        "id_g0_fadeProfile": 0.0,
        "id_g0_directOutsMode": 3,
        "id_g0_auxSendsMode": 3,
        "id_g0_panLawStereo": 1,
        "id_g0_vuColorThemeLocal": 0,
        "id_g0_filterPos": 1,
        "id_g0_dispColorLocal": 0,
        "id_g0_panCvLevel": 1.0,
        "id_g0_stereoWidth": 1.0,
        "id_g1_fadeRate": 0.0,
        "id_g1_fadeProfile": 0.0,
        "id_g1_directOutsMode": 3,
        "id_g1_auxSendsMode": 3,
        "id_g1_panLawStereo": 1,
        "id_g1_vuColorThemeLocal": 0,
        "id_g1_filterPos": 1,
        "id_g1_dispColorLocal": 0,
        "id_g1_panCvLevel": 1.0,
        "id_g1_stereoWidth": 1.0,
        "dcBlock": false,
        "clipping": 0,
        "fadeRate": 0.0,
        "fadeProfile": 0.0,
        "vuColorThemeLocal": 0,
        "dispColorLocal": 0,
        "chainOnly": 0,
        "dimGain": 0.251190007,
        "masterLabel": "MASTER"
      },
      "pos": [
        32,
        2
      ]
    },
    {
      "id": 44,
      "plugin": "NYSTHI",
      "version": "1.0.17",
      "model": "PolyRecorder64",
      "params": [
        {
          "id": 0,
          "value": 0.0
        },
        {
          "id": 1,
          "value": 0.0
        },
        {
          "id": 2,
          "value": 0.0
        }
      ],
      "rightModuleId": 69,
      "data": {
        "wavebits": 9,
        "m_attenuation": 1.0,
        "m_raw_pcm_float": 0.0,
        "m_must_consolidate": true,
        "m_separated_stems": false,
        "m_separated_stems_in_dir": false,
        "m_separated_stems_are_stereo": false,
        "m_use_start_as_startstop_toggle": true
      },
      "pos": [
        15,
        1
      ]
    },
    {
      "id": 55,
      "plugin": "AudibleInstruments",
      "version": "1.5.0",
      "model": "Ripples",
      "params": [
        {
          "id": 0,
          "value": 0.0
        },
        {
          "id": 1,
          "value": 8.52251148
        },
        {
          "id": 2,
          "value": 0.0
        }
      ],
      "leftModuleId": 123,
      "rightModuleId": 167,
      "pos": [
        89,
        2
      ]
    },
    {
      "id": 60,
      "plugin": "AudibleInstruments",
      "version": "1.5.0",
      "model": "Clouds",
      "params": [
        {
          "id": 0,
          "value": 0.0
        },
        {
          "id": 1,
          "value": 0.0
        },
        {
          "id": 2,
          "value": 0.0
        },
        {
          "id": 3,
          "value": 0.5
        },
        {
          "id": 4,
          "value": 0.569999993
        },
        {
          "id": 5,
          "value": 0.0
        },
        {
          "id": 6,
          "value": 0.956499875
        },
        {
          "id": 7,
          "value": 0.822499931
        },
        {
          "id": 8,
          "value": 0.658499956
        },
        {
          "id": 9,
          "value": 1.0
        },
        {
          "id": 10,
          "value": 0.0
        },
        {
          "id": 11,
          "value": 0.0
        },
        {
          "id": 12,
          "value": 0.521500051
        }
      ],
      "leftModuleId": 167,
      "rightModuleId": 138,
      "data": {
        "playback": 0,
        "quality": 0,
        "blendMode": 2
      },
      "pos": [
        105,
        2
      ]
    },
    {
      "id": 61,
      "plugin": "AudibleInstruments",
      "version": "1.5.0",
      "model": "Clouds",
      "params": [
        {
          "id": 0,
          "value": 0.0
        },
        {
          "id": 1,
          "value": 0.0
        },
        {
          "id": 2,
          "value": 0.0
        },
        {
          "id": 3,
          "value": 0.5
        },
        {
          "id": 4,
          "value": 0.480000019
        },
        {
          "id": 5,
          "value": 0.0
        },
        {
          "id": 6,
          "value": 0.49999997
        },
        {
          "id": 7,
          "value": 0.72949934
        },
        {
          "id": 8,
          "value": 0.312000006
        },
        {
          "id": 9,
          "value": 1.0
        },
        {
          "id": 10,
          "value": 0.0
        },
        {
          "id": 11,
          "value": 0.0
        },
        {
          "id": 12,
          "value": 0.685499966
        }
      ],
      "leftModuleId": 65,
      "rightModuleId": 137,
      "data": {
        "playback": 0,
        "quality": 0,
        "blendMode": 2
      },
      "pos": [
        105,
        1
      ]
    },
    {
      "id": 63,
      "plugin": "AudibleInstruments",
      "version": "1.5.0",
      "model": "Braids",
      "params": [
        {
          "id": 0,
          "value": 0.0
        },
        {
          "id": 1,
          "value": -1.0
        },
        {
          "id": 2,
          "value": 0.0
        },
        {
          "id": 3,
          "value": 0.0
        },
        {
          "id": 4,
          "value": 0.0
        },
        {
          "id": 5,
          "value": 0.505999446
        },
        {
          "id": 6,
          "value": 0.808501303
        }
      ],
      "leftModuleId": 69,
      "rightModuleId": 97,
      "data": {
        "settings": [
          37,
          0,
          0,
          0,
          0,
          0,
          0,
          0,
          0,
          0,
          0,
          0,
          0,
          0,
          0,
          0,
          0,
          0,
          0,
          0
        ],
        "lowCpu": true
      },
      "pos": [
        39,
        1
      ]
    },
    {
      "id": 65,
      "plugin": "AudibleInstruments",
      "version": "1.5.0",
      "model": "Ripples",
      "params": [
        {
          "id": 0,
          "value": 0.587500274
        },
        {
          "id": 1,
          "value": 9.22509384
        },
        {
          "id": 2,
          "value": 0.0
        }
      ],
      "leftModuleId": 99,
      "rightModuleId": 61,
      "pos": [
        97,
        1
      ]
    },
    {
      "id": 68,
      "plugin": "AudibleInstruments",
      "version": "1.5.0",
      "model": "Braids",
      "params": [
        {
          "id": 0,
          "value": 0.0
        },
        {
          "id": 1,
          "value": -1.0
        },
        {
          "id": 2,
          "value": 0.0
        },
        {
          "id": 3,
          "value": 0.5
        },
        {
          "id": 4,
          "value": 0.0
        },
        {
          "id": 5,
          "value": 0.5
        },
        {
          "id": 6,
          "value": 0.300999045
        }
      ],
      "leftModuleId": 56,
      "rightModuleId": 11,
      "data": {
        "settings": [
          14,
          0,
          0,
          0,
          0,
          0,
          0,
          0,
          0,
          0,
          0,
          0,
          0,
          0,
          0,
          0,
          0,
          0,
          0,
          0
        ],
        "lowCpu": true
      },
      "pos": [
        23,
        0
      ]
    },
    {
      "id": 69,
      "plugin": "AudibleInstruments",
      "version": "1.5.0",
      "model": "Braids",
      "params": [
        {
          "id": 0,
          "value": 0.0
        },
        {
          "id": 1,
          "value": -1.0
        },
        {
          "id": 2,
          "value": 0.0
        },
        {
          "id": 3,
          "value": 0.0
        },
        {
          "id": 4,
          "value": 0.0
        },
        {
          "id": 5,
          "value": 0.5
        },
        {
          "id": 6,
          "value": 0.803499401
        }
      ],
      "leftModuleId": 44,
      "rightModuleId": 63,
      "data": {
        "settings": [
          37,
          0,
          0,
          0,
          0,
          0,
          0,
          0,
          0,
          0,
          0,
          0,
          0,
          0,
          0,
          0,
          0,
          0,
          0,
          0
        ],
        "lowCpu": true
      },
      "pos": [
        23,
        1
      ]
    },
    {
      "id": 56,
      "plugin": "AS",
      "version": "1.0.4",
      "model": "TriLFO",
      "params": [
        {
          "id": 0,
          "value": 1.0
        },
        {
          "id": 1,
          "value": 1.0
        },
        {
          "id": 2,
          "value": -2.26899981
        },
        {
          "id": 3,
          "value": 1.0
        },
        {
          "id": 4,
          "value": 1.0
        },
        {
          "id": 5,
          "value": -2.06000257
        },
        {
          "id": 6,
          "value": 1.0
        },
        {
          "id": 7,
          "value": 1.0
        },
        {
          "id": 8,
          "value": -3.24099755
        },
        {
          "id": 9,
          "value": 0.0
        },
        {
          "id": 10,
          "value": 0.0
        },
        {
          "id": 11,
          "value": 0.0
        },
        {
          "id": 12,
          "value": 0.0
        }
      ],
      "leftModuleId": 104,
      "rightModuleId": 68,
      "pos": [
        13,
        0
      ]
    },
    {
      "id": 85,
      "plugin": "JW-Modules",
      "version": "1.0.29",
      "model": "FullScope",
      "params": [
        {
          "id": 0,
          "value": -1.0
        },
        {
          "id": 1,
          "value": -10.0
        },
        {
          "id": 2,
          "value": 0.0500004292
        },
        {
          "id": 3,
          "value": 0.0
        },
        {
          "id": 4,
          "value": -13.0300035
        },
        {
          "id": 5,
          "value": 0.0
        },
        {
          "id": 6,
          "value": 0.0
        },
        {
          "id": 7,
          "value": 0.0
        },
        {
          "id": 8,
          "value": 0.0
        }
      ],
      "leftModuleId": 156,
      "data": {
        "lissajous": 1,
        "external": 0
      },
      "width": 435.0,
      "height": 380.0,
      "pos": [
        172,
        0
      ]
    },
    {
      "id": 86,
      "plugin": "AudibleInstruments",
      "version": "1.5.0",
      "model": "Plaits",
      "params": [
        {
          "id": 0,
          "value": 0.0
        },
        {
          "id": 1,
          "value": 0.0
        },
        {
          "id": 2,
          "value": 1.0
        },
        {
          "id": 3,
          "value": 0.254999697
        },
        {
          "id": 4,
          "value": 0.0
        },
        {
          "id": 5,
          "value": 0.5
        },
        {
          "id": 6,
          "value": 0.0
        },
        {
          "id": 7,
          "value": 0.0
        },
        {
          "id": 8,
          "value": 0.0
        },
        {
          "id": 9,
          "value": 0.5
        },
        {
          "id": 10,
          "value": 0.5
        }
      ],
      "leftModuleId": 16,
      "rightModuleId": 43,
      "data": {
        "lowCpu": false,
        "model": 2
      },
      "pos": [
        20,
        2
      ]
    },
    {
      "id": 88,
      "plugin": "Fundamental",
      "version": "1.4.0",
      "model": "VCA-1",
      "params": [
        {
          "id": 0,
          "value": 1.0
        },
        {
          "id": 1,
          "value": 1.0
        }
      ],
      "leftModuleId": 121,
      "rightModuleId": 122,
      "pos": [
        71,
        2
      ]
    },
    {
      "id": 94,
      "plugin": "Fundamental",
      "version": "1.4.0",
      "model": "VCA-1",
      "params": [
        {
          "id": 0,
          "value": 1.0
        },
        {
          "id": 1,
          "value": 1.0
        }
      ],
      "leftModuleId": 110,
      "rightModuleId": 114,
      "pos": [
        79,
        0
      ]
    },
    {
      "id": 96,
      "plugin": "AudibleInstruments",
      "version": "1.5.0",
      "model": "Braids",
      "params": [
        {
          "id": 0,
          "value": 0.0
        },
        {
          "id": 1,
          "value": -1.0
        },
        {
          "id": 2,
          "value": 0.0
        },
        {
          "id": 3,
          "value": 0.625999868
        },
        {
          "id": 4,
          "value": 0.0
        },
        {
          "id": 5,
          "value": 0.5
        },
        {
          "id": 6,
          "value": 0.314999998
        }
      ],
      "leftModuleId": 11,
      "rightModuleId": 113,
      "data": {
        "settings": [
          14,
          0,
          0,
          0,
          0,
          0,
          0,
          0,
          0,
          0,
          0,
          0,
          0,
          0,
          0,
          0,
          0,
          0,
          0,
          0
        ],
        "lowCpu": true
      },
      "pos": [
        55,
        0
      ]
    },
    {
      "id": 97,
      "plugin": "AudibleInstruments",
      "version": "1.5.0",
      "model": "Braids",
      "params": [
        {
          "id": 0,
          "value": 0.0
        },
        {
          "id": 1,
          "value": -1.0
        },
        {
          "id": 2,
          "value": 0.0
        },
        {
          "id": 3,
          "value": 0.0
        },
        {
          "id": 4,
          "value": 0.0
        },
        {
          "id": 5,
          "value": 0.5
        },
        {
          "id": 6,
          "value": 0.798999846
        }
      ],
      "leftModuleId": 63,
      "rightModuleId": 115,
      "data": {
        "settings": [
          37,
          0,
          0,
          0,
          0,
          0,
          0,
          0,
          0,
          0,
          0,
          0,
          0,
          0,
          0,
          0,
          0,
          0,
          0,
          0
        ],
        "lowCpu": true
      },
      "pos": [
        55,
        1
      ]
    },
    {
      "id": 98,
      "plugin": "Fundamental",
      "version": "1.4.0",
      "model": "VCMixer",
      "params": [
        {
          "id": 0,
          "value": 1.0
        },
        {
          "id": 1,
          "value": 1.0
        },
        {
          "id": 2,
          "value": 0.980050147
        },
        {
          "id": 3,
          "value": 0.988534987
        },
        {
          "id": 4,
          "value": 1.0
        }
      ],
      "leftModuleId": 114,
      "rightModuleId": 12,
      "pos": [
        87,
        0
      ]
    },
    {
      "id": 99,
      "plugin": "Fundamental",
      "version": "1.4.0",
      "model": "VCMixer",
      "params": [
        {
          "id": 0,
          "value": 0.979000092
        },
        {
          "id": 1,
          "value": 1.0
        },
        {
          "id": 2,
          "value": 1.0
        },
        {
          "id": 3,
          "value": 1.0
        },
        {
          "id": 4,
          "value": 1.0
        }
      ],
      "leftModuleId": 118,
      "rightModuleId": 65,
      "pos": [
        87,
        1
      ]
    },
    {
      "id": 103,
      "plugin": "Core",
      "version": "1.1.6",
      "model": "MIDIToCVInterface",
      "params": [],
      "rightModuleId": 104,
      "data": {
        "channels": 3,
        "polyMode": 2,
        "clockDivision": 24,
        "lastPitch": 8192,
        "lastMod": 0,
        "midi": {
          "driver": 4,
          "deviceName": "LoopBe Internal MIDI 0",
          "channel": 1
        }
      },
      "pos": [
        0,
        0
      ]
    },
    {
      "id": 104,
      "plugin": "Fundamental",
      "version": "1.4.0",
      "model": "Split",
      "params": [],
      "leftModuleId": 103,
      "rightModuleId": 56,
      "pos": [
        8,
        0
      ]
    },
    {
      "id": 110,
      "plugin": "Bogaudio",
      "version": "1.1.37",
      "model": "Bogaudio-ADSR",
      "params": [
        {
          "id": 0,
          "value": 0.141421005
        },
        {
          "id": 1,
          "value": 0.316229999
        },
        {
          "id": 2,
          "value": 1.0
        },
        {
          "id": 3,
          "value": 0.316229999
        },
        {
          "id": 4,
          "value": 0.0
        }
      ],
      "leftModuleId": 113,
      "rightModuleId": 94,
      "data": {
        "invert": 1.0
      },
      "pos": [
        76,
        0
      ]
    },
    {
      "id": 113,
      "plugin": "Fundamental",
      "version": "1.4.0",
      "model": "Merge",
      "params": [],
      "leftModuleId": 96,
      "rightModuleId": 110,
      "data": {
        "channels": -1
      },
      "pos": [
        71,
        0
      ]
    },
    {
      "id": 114,
      "plugin": "Fundamental",
      "version": "1.4.0",
      "model": "Split",
      "params": [],
      "leftModuleId": 94,
      "rightModuleId": 98,
      "pos": [
        82,
        0
      ]
    },
    {
      "id": 115,
      "plugin": "Fundamental",
      "version": "1.4.0",
      "model": "Merge",
      "params": [],
      "leftModuleId": 97,
      "rightModuleId": 116,
      "data": {
        "channels": -1
      },
      "pos": [
        71,
        1
      ]
    },
    {
      "id": 116,
      "plugin": "Bogaudio",
      "version": "1.1.37",
      "model": "Bogaudio-ADSR",
      "params": [
        {
          "id": 0,
          "value": 0.141421005
        },
        {
          "id": 1,
          "value": 0.316229999
        },
        {
          "id": 2,
          "value": 1.0
        },
        {
          "id": 3,
          "value": 0.316229999
        },
        {
          "id": 4,
          "value": 0.0
        }
      ],
      "leftModuleId": 115,
      "rightModuleId": 117,
      "data": {
        "invert": 1.0
      },
      "pos": [
        76,
        1
      ]
    },
    {
      "id": 117,
      "plugin": "Fundamental",
      "version": "1.4.0",
      "model": "VCA-1",
      "params": [
        {
          "id": 0,
          "value": 1.0
        },
        {
          "id": 1,
          "value": 1.0
        }
      ],
      "leftModuleId": 116,
      "rightModuleId": 118,
      "pos": [
        79,
        1
      ]
    },
    {
      "id": 118,
      "plugin": "Fundamental",
      "version": "1.4.0",
      "model": "Split",
      "params": [],
      "leftModuleId": 117,
      "rightModuleId": 99,
      "pos": [
        82,
        1
      ]
    },
    {
      "id": 119,
      "plugin": "Core",
      "version": "1.1.6",
      "model": "MIDIToCVInterface",
      "params": [],
      "rightModuleId": 120,
      "data": {
        "channels": 3,
        "polyMode": 2,
        "clockDivision": 24,
        "lastPitch": 8192,
        "lastMod": 0,
        "midi": {
          "driver": 4,
          "deviceName": "LoopBe Internal MIDI 0",
          "channel": 2
        }
      },
      "pos": [
        0,
        1
      ]
    },
    {
      "id": 120,
      "plugin": "Fundamental",
      "version": "1.4.0",
      "model": "Split",
      "params": [],
      "leftModuleId": 119,
      "pos": [
        8,
        1
      ]
    },
    {
      "id": 121,
      "plugin": "Bogaudio",
      "version": "1.1.37",
      "model": "Bogaudio-ADSR",
      "params": [
        {
          "id": 0,
          "value": 0.141421005
        },
        {
          "id": 1,
          "value": 0.316229999
        },
        {
          "id": 2,
          "value": 1.0
        },
        {
          "id": 3,
          "value": 0.316229999
        },
        {
          "id": 4,
          "value": 0.0
        }
      ],
      "leftModuleId": 43,
      "rightModuleId": 88,
      "data": {
        "invert": 1.0
      },
      "pos": [
        68,
        2
      ]
    },
    {
      "id": 122,
      "plugin": "Fundamental",
      "version": "1.4.0",
      "model": "Split",
      "params": [],
      "leftModuleId": 88,
      "rightModuleId": 123,
      "pos": [
        74,
        2
      ]
    },
    {
      "id": 123,
      "plugin": "Fundamental",
      "version": "1.4.0",
      "model": "VCMixer",
      "params": [
        {
          "id": 0,
          "value": 2.0
        },
        {
          "id": 1,
          "value": 1.0
        },
        {
          "id": 2,
          "value": 1.0
        },
        {
          "id": 3,
          "value": 1.0
        },
        {
          "id": 4,
          "value": 1.0
        }
      ],
      "leftModuleId": 122,
      "rightModuleId": 55,
      "pos": [
        79,
        2
      ]
    },
    {
      "id": 124,
      "plugin": "Core",
      "version": "1.1.6",
      "model": "MIDIToCVInterface",
      "params": [],
      "data": {
        "channels": 3,
        "polyMode": 2,
        "clockDivision": 24,
        "lastPitch": 8192,
        "lastMod": 0,
        "midi": {
          "driver": 4,
          "deviceName": "LoopBe Internal MIDI 0",
          "channel": 0
        }
      },
      "pos": [
        0,
        2
      ]
    },
    {
      "id": 126,
      "plugin": "Core",
      "version": "1.1.6",
      "model": "MIDICCToCVInterface",
      "params": [],
      "leftModuleId": 136,
      "rightModuleId": 139,
      "data": {
        "ccs": [
          0,
          1,
          2,
          3,
          4,
          5,
          6,
          7,
          8,
          9,
          10,
          11,
          12,
          13,
          14,
          15
        ],
        "values": [
          0,
          0,
          126,
          0,
          0,
          0,
          0,
          0,
          0,
          0,
          0,
          0,
          0,
          0,
          0,
          0,
          0,
          0,
          0,
          0,
          0,
          0,
          0,
          0,
          0,
          0,
          0,
          0,
          0,
          0,
          0,
          0,
          0,
          0,
          0,
          0,
          0,
          0,
          0,
          0,
          0,
          0,
          0,
          0,
          0,
          0,
          0,
          0,
          0,
          0,
          0,
          0,
          0,
          0,
          0,
          0,
          0,
          0,
          0,
          0,
          0,
          0,
          0,
          0,
          0,
          0,
          0,
          0,
          0,
          0,
          0,
          0,
          0,
          0,
          0,
          0,
          0,
          0,
          0,
          0,
          0,
          0,
          0,
          0,
          0,
          0,
          0,
          0,
          0,
          0,
          0,
          0,
          0,
          0,
          0,
          0,
          0,
          0,
          0,
          0,
          0,
          0,
          0,
          0,
          0,
          0,
          0,
          0,
          0,
          0,
          0,
          0,
          0,
          0,
          0,
          0,
          0,
          0,
          0,
          0,
          0,
          0,
          0,
          0,
          0,
          0,
          0,
          0
        ],
        "midi": {
          "driver": 4,
          "deviceName": "LoopBe Internal MIDI 0",
          "channel": 1
        }
      },
      "pos": [
        126,
        0
      ]
    },
    {
      "id": 127,
      "plugin": "Core",
      "version": "1.1.6",
      "model": "MIDICCToCVInterface",
      "params": [],
      "leftModuleId": 137,
      "rightModuleId": 142,
      "data": {
        "ccs": [
          0,
          1,
          2,
          3,
          4,
          5,
          6,
          7,
          8,
          9,
          10,
          11,
          12,
          13,
          14,
          15
        ],
        "values": [
          127,
          0,
          127,
          0,
          0,
          0,
          0,
          0,
          0,
          0,
          0,
          0,
          0,
          0,
          0,
          0,
          0,
          0,
          0,
          0,
          0,
          0,
          0,
          0,
          0,
          0,
          0,
          0,
          0,
          0,
          0,
          0,
          0,
          0,
          0,
          0,
          0,
          0,
          0,
          0,
          0,
          0,
          0,
          0,
          0,
          0,
          0,
          0,
          0,
          0,
          0,
          0,
          0,
          0,
          0,
          0,
          0,
          0,
          0,
          0,
          0,
          0,
          0,
          0,
          0,
          0,
          0,
          0,
          0,
          0,
          0,
          0,
          0,
          0,
          0,
          0,
          0,
          0,
          0,
          0,
          0,
          0,
          0,
          0,
          0,
          0,
          0,
          0,
          0,
          0,
          0,
          0,
          0,
          0,
          0,
          0,
          0,
          0,
          0,
          0,
          0,
          0,
          0,
          0,
          0,
          0,
          0,
          0,
          0,
          0,
          0,
          0,
          0,
          0,
          0,
          0,
          0,
          0,
          0,
          0,
          0,
          0,
          0,
          0,
          0,
          0,
          0,
          0
        ],
        "midi": {
          "driver": 4,
          "deviceName": "LoopBe Internal MIDI 0",
          "channel": 2
        }
      },
      "pos": [
        126,
        1
      ]
    },
    {
      "id": 128,
      "plugin": "Core",
      "version": "1.1.6",
      "model": "MIDICCToCVInterface",
      "params": [],
      "leftModuleId": 138,
      "rightModuleId": 144,
      "data": {
        "ccs": [
          0,
          1,
          2,
          3,
          4,
          5,
          6,
          7,
          8,
          9,
          10,
          11,
          12,
          13,
          14,
          15
        ],
        "values": [
          63,
          0,
          123,
          0,
          0,
          0,
          0,
          0,
          0,
          0,
          0,
          0,
          0,
          0,
          0,
          0,
          0,
          0,
          0,
          0,
          0,
          0,
          0,
          0,
          0,
          0,
          0,
          0,
          0,
          0,
          0,
          0,
          0,
          0,
          0,
          0,
          0,
          0,
          0,
          0,
          0,
          0,
          0,
          0,
          0,
          0,
          0,
          0,
          0,
          0,
          0,
          0,
          0,
          0,
          0,
          0,
          0,
          0,
          0,
          0,
          0,
          0,
          0,
          0,
          0,
          0,
          0,
          0,
          0,
          0,
          0,
          0,
          0,
          0,
          0,
          0,
          0,
          0,
          0,
          0,
          0,
          0,
          0,
          0,
          0,
          0,
          0,
          0,
          0,
          0,
          0,
          0,
          0,
          0,
          0,
          0,
          0,
          0,
          0,
          0,
          0,
          0,
          0,
          0,
          0,
          0,
          0,
          0,
          0,
          0,
          0,
          0,
          0,
          0,
          0,
          0,
          0,
          0,
          0,
          0,
          0,
          0,
          0,
          0,
          0,
          0,
          0,
          0
        ],
        "midi": {
          "driver": 4,
          "deviceName": "LoopBe Internal MIDI 0",
          "channel": 0
        }
      },
      "pos": [
        126,
        2
      ]
    },
    {
      "id": 136,
      "plugin": "Bogaudio",
      "version": "1.1.37",
      "model": "Bogaudio-Offset",
      "params": [
        {
          "id": 0,
          "value": 0.0
        },
        {
          "id": 1,
          "value": 0.2682302
        }
      ],
      "leftModuleId": 22,
      "rightModuleId": 126,
      "data": {
        "disableOutputLimit": false,
        "offset_first": false
      },
      "pos": [
        123,
        0
      ]
    },
    {
      "id": 137,
      "plugin": "Bogaudio",
      "version": "1.1.37",
      "model": "Bogaudio-Offset",
      "params": [
        {
          "id": 0,
          "value": 0.0
        },
        {
          "id": 1,
          "value": 0.193229854
        }
      ],
      "leftModuleId": 61,
      "rightModuleId": 127,
      "data": {
        "disableOutputLimit": false,
        "offset_first": false
      },
      "pos": [
        123,
        1
      ]
    },
    {
      "id": 138,
      "plugin": "Bogaudio",
      "version": "1.1.37",
      "model": "Bogaudio-Offset",
      "params": [
        {
          "id": 0,
          "value": 0.0
        },
        {
          "id": 1,
          "value": 0.17223002
        }
      ],
      "leftModuleId": 60,
      "rightModuleId": 128,
      "data": {
        "disableOutputLimit": false,
        "offset_first": false
      },
      "pos": [
        123,
        2
      ]
    },
    {
      "id": 139,
      "plugin": "Stoermelder-P1",
      "version": "1.8.0",
      "model": "CVMapMicro",
      "params": [
        {
          "id": 0,
          "value": 0.0
        },
        {
          "id": 1,
          "value": 0.525000215
        },
        {
          "id": 2,
          "value": 0.100000001
        }
      ],
      "leftModuleId": 126,
      "rightModuleId": 141,
      "data": {
        "textScrolling": true,
        "mappingIndicatorHidden": false,
        "maps": [
          {
            "moduleId": 12,
            "paramId": 1
          }
        ],
        "lockParameterChanges": true,
        "bipolarInput": false,
        "panelTheme": 0,
        "invertedOutput": false
      },
      "pos": [
        136,
        0
      ]
    },
    {
      "id": 141,
      "plugin": "Stoermelder-P1",
      "version": "1.8.0",
      "model": "CVMapMicro",
      "params": [
        {
          "id": 0,
          "value": 0.0
        },
        {
          "id": 1,
          "value": 0.0
        },
        {
          "id": 2,
          "value": 0.699999988
        }
      ],
      "leftModuleId": 139,
      "rightModuleId": 150,
      "data": {
        "textScrolling": true,
        "mappingIndicatorHidden": false,
        "maps": [
          {
            "moduleId": 22,
            "paramId": 11
          }
        ],
        "lockParameterChanges": true,
        "bipolarInput": false,
        "panelTheme": 0,
        "invertedOutput": false
      },
      "pos": [
        139,
        0
      ]
    },
    {
      "id": 142,
      "plugin": "Stoermelder-P1",
      "version": "1.8.0",
      "model": "CVMapMicro",
      "params": [
        {
          "id": 0,
          "value": 0.0
        },
        {
          "id": 1,
          "value": 0.492000043
        },
        {
          "id": 2,
          "value": 0.200000003
        }
      ],
      "leftModuleId": 127,
      "rightModuleId": 143,
      "data": {
        "textScrolling": true,
        "mappingIndicatorHidden": false,
        "maps": [
          {
            "moduleId": 65,
            "paramId": 1
          }
        ],
        "lockParameterChanges": true,
        "bipolarInput": false,
        "panelTheme": 0,
        "invertedOutput": false
      },
      "pos": [
        136,
        1
      ]
    },
    {
      "id": 143,
      "plugin": "Stoermelder-P1",
      "version": "1.8.0",
      "model": "CVMapMicro",
      "params": [
        {
          "id": 0,
          "value": 0.0
        },
        {
          "id": 1,
          "value": 0.0
        },
        {
          "id": 2,
          "value": 0.180000007
        }
      ],
      "leftModuleId": 142,
      "rightModuleId": 158,
      "data": {
        "textScrolling": true,
        "mappingIndicatorHidden": false,
        "maps": [
          {
            "moduleId": 61,
            "paramId": 11
          }
        ],
        "lockParameterChanges": true,
        "bipolarInput": false,
        "panelTheme": 0,
        "invertedOutput": false
      },
      "pos": [
        139,
        1
      ]
    },
    {
      "id": 144,
      "plugin": "Stoermelder-P1",
      "version": "1.8.0",
      "model": "CVMapMicro",
      "params": [
        {
          "id": 0,
          "value": 0.0
        },
        {
          "id": 1,
          "value": 0.421500564
        },
        {
          "id": 2,
          "value": 0.0799999982
        }
      ],
      "leftModuleId": 128,
      "rightModuleId": 145,
      "data": {
        "textScrolling": true,
        "mappingIndicatorHidden": false,
        "maps": [
          {
            "moduleId": 55,
            "paramId": 1
          }
        ],
        "lockParameterChanges": true,
        "bipolarInput": false,
        "panelTheme": 0,
        "invertedOutput": false
      },
      "pos": [
        136,
        2
      ]
    },
    {
      "id": 145,
      "plugin": "Stoermelder-P1",
      "version": "1.8.0",
      "model": "CVMapMicro",
      "params": [
        {
          "id": 0,
          "value": 0.0
        },
        {
          "id": 1,
          "value": 0.0
        },
        {
          "id": 2,
          "value": 1.79999995
        }
      ],
      "leftModuleId": 144,
      "rightModuleId": 160,
      "data": {
        "textScrolling": true,
        "mappingIndicatorHidden": false,
        "maps": [
          {
            "moduleId": 60,
            "paramId": 11
          }
        ],
        "lockParameterChanges": true,
        "bipolarInput": false,
        "panelTheme": 0,
        "invertedOutput": false
      },
      "pos": [
        139,
        2
      ]
    },
    {
      "id": 150,
      "plugin": "Stoermelder-P1",
      "version": "1.8.0",
      "model": "CVMapMicro",
      "params": [
        {
          "id": 0,
          "value": 0.0
        },
        {
          "id": 1,
          "value": 0.0
        },
        {
          "id": 2,
          "value": 1.0
        }
      ],
      "leftModuleId": 141,
      "rightModuleId": 152,
      "data": {
        "textScrolling": true,
        "mappingIndicatorHidden": false,
        "maps": [
          {
            "moduleId": 85,
            "paramId": 1
          }
        ],
        "lockParameterChanges": true,
        "bipolarInput": false,
        "panelTheme": 0,
        "invertedOutput": false
      },
      "pos": [
        142,
        0
      ]
    },
    {
      "id": 152,
      "plugin": "Stoermelder-P1",
      "version": "1.8.0",
      "model": "CVMapMicro",
      "params": [
        {
          "id": 0,
          "value": 0.0
        },
        {
          "id": 1,
          "value": 0.0
        },
        {
          "id": 2,
          "value": 0.200000003
        }
      ],
      "leftModuleId": 150,
      "rightModuleId": 156,
      "data": {
        "textScrolling": true,
        "mappingIndicatorHidden": false,
        "maps": [
          {
            "moduleId": 85,
            "paramId": 2
          }
        ],
        "lockParameterChanges": true,
        "bipolarInput": true,
        "panelTheme": 0,
        "invertedOutput": false
      },
      "pos": [
        145,
        0
      ]
    },
    {
      "id": 156,
      "plugin": "NYSTHI",
      "version": "1.0.17",
      "model": "BZ-MAPPER",
      "params": [
        {
          "id": 0,
          "value": 0.0
        },
        {
          "id": 1,
          "value": 0.0
        },
        {
          "id": 2,
          "value": 0.0
        },
        {
          "id": 3,
          "value": 0.0
        },
        {
          "id": 4,
          "value": 0.0
        },
        {
          "id": 5,
          "value": 0.0
        },
        {
          "id": 6,
          "value": 0.0
        }
      ],
      "leftModuleId": 152,
      "rightModuleId": 85,
      "data": {
        "m_cv_mode": 1.0,
        "m_mode": 0.0,
        "zoom_level": 1.0,
        "m_points": [
          0.0,
          0.977343738,
          0.0,
          0.977343738,
          0.0,
          0.0,
          0.0,
          0.0,
          0.0,
          0.0,
          0.0,
          0.0,
          0.492637306,
          0.903011084,
          0.492637306,
          0.903011084,
          0.25,
          0.25,
          0.166659996,
          0.166659996,
          0.125,
          0.125,
          0.100000001,
          0.100000001,
          1.0,
          0.848502636,
          1.0,
          0.848502636,
          0.5,
          0.5,
          0.333330005,
          0.333330005,
          0.25,
          0.25,
          0.200000003,
          0.200000003,
          0.0,
          0.0,
          0.0,
          0.0,
          0.75,
          0.75,
          0.5,
          0.5,
          0.375,
          0.375,
          0.300000012,
          0.300000012,
          0.0,
          0.0,
          0.0,
          0.0,
          1.0,
          1.08333337,
          0.666660011,
          0.666660011,
          0.5,
          0.5,
          0.400000006,
          0.400000006,
          0.0,
          0.0,
          0.0,
          0.0,
          0.0,
          0.0,
          0.833333015,
          0.833333015,
          0.625,
          0.625,
          0.5,
          0.5,
          0.0,
          0.0,
          0.0,
          0.0,
          0.0,
          0.0,
          1.0,
          1.0,
          0.75,
          0.75,
          0.600000024,
          0.600000024,
          0.0,
          0.0,
          0.0,
          0.0,
          0.0,
          0.0,
          0.0,
          0.0,
          0.875,
          0.875,
          0.699999988,
          0.699999988,
          0.0,
          0.0,
          0.0,
          0.0,
          0.0,
          0.0,
          0.0,
          0.0,
          1.0,
          1.0,
          0.800000012,
          0.800000012,
          0.0,
          0.0,
          0.0,
          0.0,
          0.0,
          0.0,
          0.0,
          0.0,
          0.0,
          0.0,
          0.899999976,
          0.899999976,
          0.0,
          0.0,
          0.0,
          0.0,
          0.0,
          0.0,
          0.0,
          0.0,
          0.0,
          0.0,
          1.0,
          1.0,
          0.0,
          0.0,
          0.0,
          0.0,
          0.0,
          0.0,
          0.0,
          0.0,
          0.0,
          0.0,
          0.0,
          0.0
        ]
      },
      "pos": [
        148,
        0
      ]
    },
    {
      "id": 157,
      "plugin": "NYSTHI",
      "version": "1.0.17",
      "model": "BZ-MAPPER",
      "params": [
        {
          "id": 0,
          "value": 0.0
        },
        {
          "id": 1,
          "value": 0.0
        },
        {
          "id": 2,
          "value": 0.0
        },
        {
          "id": 3,
          "value": 0.0
        },
        {
          "id": 4,
          "value": 0.0
        },
        {
          "id": 5,
          "value": 0.0
        },
        {
          "id": 6,
          "value": 0.0
        }
      ],
      "leftModuleId": 159,
      "rightModuleId": 164,
      "data": {
        "m_cv_mode": 1.0,
        "m_mode": 0.0,
        "zoom_level": 1.0,
        "m_points": [
          0.0,
          0.989925146,
          0.0,
          0.989925146,
          0.0,
          0.943408191,
          0.0,
          0.0,
          0.0,
          0.0,
          0.0,
          0.0,
          0.489032894,
          0.925504565,
          0.489032894,
          0.925504565,
          0.25,
          0.25,
          0.166659996,
          0.166659996,
          0.125,
          0.125,
          0.100000001,
          0.100000001,
          1.0,
          0.861100256,
          1.0,
          0.861100256,
          0.5,
          0.5,
          0.333330005,
          0.333330005,
          0.25,
          0.25,
          0.200000003,
          0.200000003,
          0.0,
          0.0,
          0.0,
          0.0,
          0.75,
          0.75,
          0.5,
          0.5,
          0.375,
          0.375,
          0.300000012,
          0.300000012,
          0.0,
          0.0,
          0.0,
          0.0,
          1.0,
          1.0,
          0.666660011,
          0.666660011,
          0.5,
          0.5,
          0.400000006,
          0.400000006,
          0.0,
          0.0,
          0.0,
          0.0,
          0.0,
          0.0,
          0.833333015,
          0.833333015,
          0.625,
          0.625,
          0.5,
          0.5,
          0.0,
          0.0,
          0.0,
          0.0,
          0.0,
          0.0,
          1.0,
          1.0,
          0.75,
          0.75,
          0.600000024,
          0.600000024,
          0.0,
          0.0,
          0.0,
          0.0,
          0.0,
          0.0,
          0.0,
          0.0,
          0.875,
          0.875,
          0.699999988,
          0.699999988,
          0.0,
          0.0,
          0.0,
          0.0,
          0.0,
          0.0,
          0.0,
          0.0,
          1.0,
          1.0,
          0.800000012,
          0.800000012,
          0.0,
          0.0,
          0.0,
          0.0,
          0.0,
          0.0,
          0.0,
          0.0,
          0.0,
          0.0,
          0.899999976,
          0.899999976,
          0.0,
          0.0,
          0.0,
          0.0,
          0.0,
          0.0,
          0.0,
          0.0,
          0.0,
          0.0,
          1.0,
          1.0,
          0.0,
          0.0,
          0.0,
          0.0,
          0.0,
          0.0,
          0.0,
          0.0,
          0.0,
          0.0,
          0.0,
          0.0
        ]
      },
      "pos": [
        148,
        1
      ]
    },
    {
      "id": 158,
      "plugin": "Stoermelder-P1",
      "version": "1.8.0",
      "model": "CVMapMicro",
      "params": [
        {
          "id": 0,
          "value": 0.0
        },
        {
          "id": 1,
          "value": 0.0
        },
        {
          "id": 2,
          "value": 1.0
        }
      ],
      "leftModuleId": 143,
      "rightModuleId": 159,
      "data": {
        "textScrolling": true,
        "mappingIndicatorHidden": false,
        "maps": [
          {
            "moduleId": 164,
            "paramId": 1
          }
        ],
        "lockParameterChanges": true,
        "bipolarInput": false,
        "panelTheme": 0,
        "invertedOutput": false
      },
      "pos": [
        142,
        1
      ]
    },
    {
      "id": 159,
      "plugin": "Stoermelder-P1",
      "version": "1.8.0",
      "model": "CVMapMicro",
      "params": [
        {
          "id": 0,
          "value": 0.0
        },
        {
          "id": 1,
          "value": 0.0809999928
        },
        {
          "id": 2,
          "value": 0.200000003
        }
      ],
      "leftModuleId": 158,
      "rightModuleId": 157,
      "data": {
        "textScrolling": true,
        "mappingIndicatorHidden": false,
        "maps": [
          {
            "moduleId": 164,
            "paramId": 2
          }
        ],
        "lockParameterChanges": true,
        "bipolarInput": false,
        "panelTheme": 0,
        "invertedOutput": false
      },
      "pos": [
        145,
        1
      ]
    },
    {
      "id": 160,
      "plugin": "Stoermelder-P1",
      "version": "1.8.0",
      "model": "CVMapMicro",
      "params": [
        {
          "id": 0,
          "value": 0.0
        },
        {
          "id": 1,
          "value": 0.0
        },
        {
          "id": 2,
          "value": 1.0
        }
      ],
      "leftModuleId": 145,
      "rightModuleId": 161,
      "data": {
        "textScrolling": true,
        "mappingIndicatorHidden": false,
        "maps": [
          {
            "moduleId": 166,
            "paramId": 1
          }
        ],
        "lockParameterChanges": true,
        "bipolarInput": false,
        "panelTheme": 0,
        "invertedOutput": false
      },
      "pos": [
        142,
        2
      ]
    },
    {
      "id": 161,
      "plugin": "Stoermelder-P1",
      "version": "1.8.0",
      "model": "CVMapMicro",
      "params": [
        {
          "id": 0,
          "value": 0.0
        },
        {
          "id": 1,
          "value": 0.177000031
        },
        {
          "id": 2,
          "value": 0.200000003
        }
      ],
      "leftModuleId": 160,
      "rightModuleId": 162,
      "data": {
        "textScrolling": true,
        "mappingIndicatorHidden": false,
        "maps": [
          {
            "moduleId": 166,
            "paramId": 2
          }
        ],
        "lockParameterChanges": true,
        "bipolarInput": false,
        "panelTheme": 0,
        "invertedOutput": false
      },
      "pos": [
        145,
        2
      ]
    },
    {
      "id": 162,
      "plugin": "NYSTHI",
      "version": "1.0.17",
      "model": "BZ-MAPPER",
      "params": [
        {
          "id": 0,
          "value": 0.0
        },
        {
          "id": 1,
          "value": 0.0
        },
        {
          "id": 2,
          "value": 0.0
        },
        {
          "id": 3,
          "value": 0.0
        },
        {
          "id": 4,
          "value": 0.0
        },
        {
          "id": 5,
          "value": 0.0
        },
        {
          "id": 6,
          "value": 0.0
        }
      ],
      "leftModuleId": 161,
      "rightModuleId": 166,
      "data": {
        "m_cv_mode": 1.0,
        "m_mode": 0.0,
        "zoom_level": 1.0,
        "m_points": [
          0.0,
          0.977734387,
          0.0,
          0.977734387,
          0.0,
          1.08333337,
          0.0,
          0.0,
          0.0,
          0.0,
          0.0,
          0.0,
          0.499846131,
          0.913330078,
          0.499846131,
          0.913330078,
          0.25,
          0.25,
          0.166659996,
          0.166659996,
          0.125,
          0.125,
          0.100000001,
          0.100000001,
          1.0,
          0.83147788,
          1.0,
          0.83147788,
          0.557504714,
          0.868733704,
          0.333330005,
          0.333330005,
          0.25,
          0.25,
          0.200000003,
          0.200000003,
          0.0,
          0.0,
          0.0,
          0.0,
          0.75,
          0.75,
          0.5,
          0.5,
          0.375,
          0.375,
          0.300000012,
          0.300000012,
          0.0,
          0.0,
          0.0,
          0.0,
          1.0,
          1.0,
          0.666660011,
          0.666660011,
          0.5,
          0.5,
          0.400000006,
          0.400000006,
          0.0,
          0.0,
          0.0,
          0.0,
          0.0,
          0.0,
          0.833333015,
          0.833333015,
          0.625,
          0.625,
          0.5,
          0.5,
          0.0,
          0.0,
          0.0,
          0.0,
          0.0,
          0.0,
          1.0,
          1.0,
          0.75,
          0.75,
          0.600000024,
          0.600000024,
          0.0,
          0.0,
          0.0,
          0.0,
          0.0,
          0.0,
          0.0,
          0.0,
          0.875,
          0.875,
          0.699999988,
          0.699999988,
          0.0,
          0.0,
          0.0,
          0.0,
          0.0,
          0.0,
          0.0,
          0.0,
          1.0,
          1.0,
          0.800000012,
          0.800000012,
          0.0,
          0.0,
          0.0,
          0.0,
          0.0,
          0.0,
          0.0,
          0.0,
          0.0,
          0.0,
          0.899999976,
          0.899999976,
          0.0,
          0.0,
          0.0,
          0.0,
          0.0,
          0.0,
          0.0,
          0.0,
          0.0,
          0.0,
          1.0,
          1.0,
          0.0,
          0.0,
          0.0,
          0.0,
          0.0,
          0.0,
          0.0,
          0.0,
          0.0,
          0.0,
          0.0,
          0.0
        ]
      },
      "pos": [
        148,
        2
      ]
    },
    {
      "id": 164,
      "plugin": "JW-Modules",
      "version": "1.0.29",
      "model": "FullScope",
      "params": [
        {
          "id": 0,
          "value": -1.0
        },
        {
          "id": 1,
          "value": 10.0
        },
        {
          "id": 2,
          "value": -0.205999851
        },
        {
          "id": 3,
          "value": -0.0787401199
        },
        {
          "id": 4,
          "value": -14.0
        },
        {
          "id": 5,
          "value": 0.0
        },
        {
          "id": 6,
          "value": 0.0
        },
        {
          "id": 7,
          "value": 0.0
        },
        {
          "id": 8,
          "value": 0.0
        }
      ],
      "leftModuleId": 157,
      "data": {
        "lissajous": 1,
        "external": 0
      },
      "width": 435.0,
      "height": 380.0,
      "pos": [
        172,
        1
      ]
    },
    {
      "id": 166,
      "plugin": "JW-Modules",
      "version": "1.0.29",
      "model": "FullScope",
      "params": [
        {
          "id": 0,
          "value": -1.0
        },
        {
          "id": 1,
          "value": -0.0787401199
        },
        {
          "id": 2,
          "value": 0.613001347
        },
        {
          "id": 3,
          "value": 0.0
        },
        {
          "id": 4,
          "value": -14.0
        },
        {
          "id": 5,
          "value": 0.0
        },
        {
          "id": 6,
          "value": 0.0
        },
        {
          "id": 7,
          "value": 0.0
        },
        {
          "id": 8,
          "value": 0.0
        }
      ],
      "leftModuleId": 162,
      "data": {
        "lissajous": 1,
        "external": 0
      },
      "width": 435.0,
      "height": 380.0,
      "pos": [
        172,
        2
      ]
    },
    {
      "id": 167,
      "plugin": "AudibleInstruments",
      "version": "1.5.0",
      "model": "Ripples",
      "params": [
        {
          "id": 0,
          "value": 0.0
        },
        {
          "id": 1,
          "value": 10.1469421
        },
        {
          "id": 2,
          "value": 0.0
        }
      ],
      "leftModuleId": 55,
      "rightModuleId": 60,
      "pos": [
        97,
        2
      ]
    }
  ],
  "cables": [
    {
      "id": 98,
      "outputModuleId": 43,
      "outputId": 2,
      "inputModuleId": 16,
      "inputId": 0,
      "color": "#0c8e15"
    },
    {
      "id": 99,
      "outputModuleId": 43,
      "outputId": 3,
      "inputModuleId": 16,
      "inputId": 1,
      "color": "#c91847"
    },
    {
      "id": 100,
      "outputModuleId": 43,
      "outputId": 0,
      "inputModuleId": 44,
      "inputId": 0,
      "color": "#0986ad"
    },
    {
      "id": 109,
      "outputModuleId": 22,
      "outputId": 0,
      "inputModuleId": 43,
      "inputId": 0,
      "color": "#0986ad"
    },
    {
      "id": 110,
      "outputModuleId": 22,
      "outputId": 1,
      "inputModuleId": 43,
      "inputId": 1,
      "color": "#c9b70e"
    },
    {
      "id": 154,
      "outputModuleId": 65,
      "outputId": 3,
      "inputModuleId": 61,
      "inputId": 6,
      "color": "#0c8e15"
    },
    {
      "id": 155,
      "outputModuleId": 65,
      "outputId": 3,
      "inputModuleId": 61,
      "inputId": 7,
      "color": "#c91847"
    },
    {
      "id": 107,
      "outputModuleId": 12,
      "outputId": 3,
      "inputModuleId": 22,
      "inputId": 6,
      "color": "#c9b70e"
    },
    {
      "id": 210,
      "outputModuleId": 12,
      "outputId": 3,
      "inputModuleId": 22,
      "inputId": 7,
      "color": "#0986ad"
    },
    {
      "id": 158,
      "outputModuleId": 61,
      "outputId": 1,
      "inputModuleId": 43,
      "inputId": 3,
      "color": "#0986ad"
    },
    {
      "id": 157,
      "outputModuleId": 61,
      "outputId": 0,
      "inputModuleId": 43,
      "inputId": 2,
      "color": "#c91847"
    },
    {
      "id": 144,
      "outputModuleId": 60,
      "outputId": 1,
      "inputModuleId": 43,
      "inputId": 4,
      "color": "#c9b70e"
    },
    {
      "id": 143,
      "outputModuleId": 60,
      "outputId": 0,
      "inputModuleId": 43,
      "inputId": 5,
      "color": "#0986ad"
    },
    {
      "id": 202,
      "outputModuleId": 56,
      "outputId": 0,
      "inputModuleId": 68,
      "inputId": 3,
      "color": "#c91847"
    },
    {
      "id": 241,
      "outputModuleId": 86,
      "outputId": 1,
      "inputModuleId": 88,
      "inputId": 1,
      "color": "#0c8e15"
    },
    {
      "id": 266,
      "outputModuleId": 98,
      "outputId": 0,
      "inputModuleId": 12,
      "inputId": 3,
      "color": "#c9b70e"
    },
    {
      "id": 245,
      "outputModuleId": 99,
      "outputId": 0,
      "inputModuleId": 65,
      "inputId": 3,
      "color": "#0c8e15"
    },
    {
      "id": 270,
      "outputModuleId": 103,
      "outputId": 0,
      "inputModuleId": 104,
      "inputId": 0,
      "color": "#c9b70e"
    },
    {
      "id": 272,
      "outputModuleId": 104,
      "outputId": 0,
      "inputModuleId": 68,
      "inputId": 1,
      "color": "#c91847"
    },
    {
      "id": 273,
      "outputModuleId": 104,
      "outputId": 1,
      "inputModuleId": 11,
      "inputId": 1,
      "color": "#0986ad"
    },
    {
      "id": 274,
      "outputModuleId": 104,
      "outputId": 2,
      "inputModuleId": 96,
      "inputId": 1,
      "color": "#c9b70e"
    },
    {
      "id": 285,
      "outputModuleId": 110,
      "outputId": 0,
      "inputModuleId": 94,
      "inputId": 0,
      "color": "#c91847"
    },
    {
      "id": 254,
      "outputModuleId": 96,
      "outputId": 0,
      "inputModuleId": 113,
      "inputId": 2,
      "color": "#0986ad"
    },
    {
      "id": 286,
      "outputModuleId": 11,
      "outputId": 0,
      "inputModuleId": 113,
      "inputId": 1,
      "color": "#0986ad"
    },
    {
      "id": 287,
      "outputModuleId": 68,
      "outputId": 0,
      "inputModuleId": 113,
      "inputId": 0,
      "color": "#c9b70e"
    },
    {
      "id": 289,
      "outputModuleId": 103,
      "outputId": 1,
      "inputModuleId": 110,
      "inputId": 0,
      "color": "#c91847"
    },
    {
      "id": 290,
      "outputModuleId": 113,
      "outputId": 0,
      "inputModuleId": 94,
      "inputId": 1,
      "color": "#0986ad"
    },
    {
      "id": 262,
      "outputModuleId": 94,
      "outputId": 0,
      "inputModuleId": 114,
      "inputId": 0,
      "color": "#c9b70e"
    },
    {
      "id": 291,
      "outputModuleId": 114,
      "outputId": 0,
      "inputModuleId": 98,
      "inputId": 1,
      "color": "#c9b70e"
    },
    {
      "id": 292,
      "outputModuleId": 114,
      "outputId": 1,
      "inputModuleId": 98,
      "inputId": 2,
      "color": "#0c8e15"
    },
    {
      "id": 293,
      "outputModuleId": 114,
      "outputId": 2,
      "inputModuleId": 98,
      "inputId": 3,
      "color": "#c91847"
    },
    {
      "id": 294,
      "outputModuleId": 119,
      "outputId": 0,
      "inputModuleId": 120,
      "inputId": 0,
      "color": "#0c8e15"
    },
    {
      "id": 295,
      "outputModuleId": 119,
      "outputId": 1,
      "inputModuleId": 116,
      "inputId": 0,
      "color": "#c91847"
    },
    {
      "id": 296,
      "outputModuleId": 120,
      "outputId": 0,
      "inputModuleId": 69,
      "inputId": 1,
      "color": "#0986ad"
    },
    {
      "id": 297,
      "outputModuleId": 120,
      "outputId": 1,
      "inputModuleId": 63,
      "inputId": 1,
      "color": "#c9b70e"
    },
    {
      "id": 298,
      "outputModuleId": 120,
      "outputId": 2,
      "inputModuleId": 97,
      "inputId": 1,
      "color": "#0c8e15"
    },
    {
      "id": 299,
      "outputModuleId": 69,
      "outputId": 0,
      "inputModuleId": 115,
      "inputId": 0,
      "color": "#c91847"
    },
    {
      "id": 300,
      "outputModuleId": 63,
      "outputId": 0,
      "inputModuleId": 115,
      "inputId": 1,
      "color": "#0986ad"
    },
    {
      "id": 301,
      "outputModuleId": 97,
      "outputId": 0,
      "inputModuleId": 115,
      "inputId": 2,
      "color": "#c9b70e"
    },
    {
      "id": 302,
      "outputModuleId": 115,
      "outputId": 0,
      "inputModuleId": 117,
      "inputId": 1,
      "color": "#0c8e15"
    },
    {
      "id": 303,
      "outputModuleId": 116,
      "outputId": 0,
      "inputModuleId": 117,
      "inputId": 0,
      "color": "#c91847"
    },
    {
      "id": 304,
      "outputModuleId": 117,
      "outputId": 0,
      "inputModuleId": 118,
      "inputId": 0,
      "color": "#0986ad"
    },
    {
      "id": 305,
      "outputModuleId": 118,
      "outputId": 0,
      "inputModuleId": 99,
      "inputId": 1,
      "color": "#c9b70e"
    },
    {
      "id": 306,
      "outputModuleId": 118,
      "outputId": 1,
      "inputModuleId": 99,
      "inputId": 2,
      "color": "#0c8e15"
    },
    {
      "id": 307,
      "outputModuleId": 118,
      "outputId": 2,
      "inputModuleId": 99,
      "inputId": 3,
      "color": "#c91847"
    },
    {
      "id": 309,
      "outputModuleId": 124,
      "outputId": 1,
      "inputModuleId": 121,
      "inputId": 0,
      "color": "#c9b70e"
    },
    {
      "id": 310,
      "outputModuleId": 124,
      "outputId": 0,
      "inputModuleId": 86,
      "inputId": 7,
      "color": "#0c8e15"
    },
    {
      "id": 311,
      "outputModuleId": 121,
      "outputId": 0,
      "inputModuleId": 88,
      "inputId": 0,
      "color": "#c91847"
    },
    {
      "id": 243,
      "outputModuleId": 88,
      "outputId": 0,
      "inputModuleId": 122,
      "inputId": 0,
      "color": "#0986ad"
    },
    {
      "id": 312,
      "outputModuleId": 122,
      "outputId": 0,
      "inputModuleId": 123,
      "inputId": 1,
      "color": "#0986ad"
    },
    {
      "id": 313,
      "outputModuleId": 122,
      "outputId": 1,
      "inputModuleId": 123,
      "inputId": 2,
      "color": "#c9b70e"
    },
    {
      "id": 314,
      "outputModuleId": 122,
      "outputId": 2,
      "inputModuleId": 123,
      "inputId": 3,
      "color": "#0c8e15"
    },
    {
      "id": 316,
      "outputModuleId": 56,
      "outputId": 0,
      "inputModuleId": 11,
      "inputId": 3,
      "color": "#0986ad"
    },
    {
      "id": 317,
      "outputModuleId": 56,
      "outputId": 0,
      "inputModuleId": 96,
      "inputId": 3,
      "color": "#c9b70e"
    },
    {
      "id": 319,
      "outputModuleId": 127,
      "outputId": 0,
      "inputModuleId": 43,
      "inputId": 27,
      "color": "#c9b70e"
    },
    {
      "id": 320,
      "outputModuleId": 126,
      "outputId": 0,
      "inputModuleId": 43,
      "inputId": 26,
      "color": "#0c8e15"
    },
    {
      "id": 321,
      "outputModuleId": 128,
      "outputId": 0,
      "inputModuleId": 43,
      "inputId": 28,
      "color": "#c91847"
    },
    {
      "id": 329,
      "outputModuleId": 126,
      "outputId": 2,
      "inputModuleId": 22,
      "inputId": 9,
      "color": "#c9b70e"
    },
    {
      "id": 330,
      "outputModuleId": 127,
      "outputId": 2,
      "inputModuleId": 61,
      "inputId": 3,
      "color": "#0c8e15"
    },
    {
      "id": 331,
      "outputModuleId": 127,
      "outputId": 2,
      "inputModuleId": 61,
      "inputId": 9,
      "color": "#c91847"
    },
    {
      "id": 332,
      "outputModuleId": 128,
      "outputId": 2,
      "inputModuleId": 60,
      "inputId": 3,
      "color": "#0986ad"
    },
    {
      "id": 333,
      "outputModuleId": 128,
      "outputId": 2,
      "inputModuleId": 60,
      "inputId": 9,
      "color": "#c9b70e"
    },
    {
      "id": 336,
      "outputModuleId": 126,
      "outputId": 1,
      "inputModuleId": 136,
      "inputId": 2,
      "color": "#0986ad"
    },
    {
      "id": 340,
      "outputModuleId": 127,
      "outputId": 1,
      "inputModuleId": 137,
      "inputId": 2,
      "color": "#c9b70e"
    },
    {
      "id": 341,
      "outputModuleId": 137,
      "outputId": 0,
      "inputModuleId": 61,
      "inputId": 5,
      "color": "#0c8e15"
    },
    {
      "id": 342,
      "outputModuleId": 128,
      "outputId": 1,
      "inputModuleId": 138,
      "inputId": 2,
      "color": "#c91847"
    },
    {
      "id": 350,
      "outputModuleId": 136,
      "outputId": 0,
      "inputModuleId": 139,
      "inputId": 2,
      "color": "#c91847"
    },
    {
      "id": 353,
      "outputModuleId": 136,
      "outputId": 0,
      "inputModuleId": 141,
      "inputId": 2,
      "color": "#0986ad"
    },
    {
      "id": 355,
      "outputModuleId": 137,
      "outputId": 0,
      "inputModuleId": 142,
      "inputId": 2,
      "color": "#0c8e15"
    },
    {
      "id": 356,
      "outputModuleId": 137,
      "outputId": 0,
      "inputModuleId": 143,
      "inputId": 2,
      "color": "#c91847"
    },
    {
      "id": 357,
      "outputModuleId": 138,
      "outputId": 0,
      "inputModuleId": 144,
      "inputId": 2,
      "color": "#0986ad"
    },
    {
      "id": 358,
      "outputModuleId": 138,
      "outputId": 0,
      "inputModuleId": 145,
      "inputId": 2,
      "color": "#c9b70e"
    },
    {
      "id": 315,
      "outputModuleId": 123,
      "outputId": 0,
      "inputModuleId": 55,
      "inputId": 3,
      "color": "#c91847"
    },
    {
      "id": 364,
      "outputModuleId": 126,
      "outputId": 0,
      "inputModuleId": 150,
      "inputId": 2,
      "color": "#c91847"
    },
    {
      "id": 230,
      "outputModuleId": 12,
      "outputId": 3,
      "inputModuleId": 85,
      "inputId": 0,
      "color": "#c9b70e"
    },
    {
      "id": 367,
      "outputModuleId": 22,
      "outputId": 1,
      "inputModuleId": 85,
      "inputId": 1,
      "color": "#0986ad"
    },
    {
      "id": 368,
      "outputModuleId": 139,
      "outputId": 0,
      "inputModuleId": 152,
      "inputId": 2,
      "color": "#0986ad"
    },
    {
      "id": 328,
      "outputModuleId": 126,
      "outputId": 2,
      "inputModuleId": 22,
      "inputId": 3,
      "color": "#0986ad"
    },
    {
      "id": 374,
      "outputModuleId": 156,
      "outputId": 0,
      "inputModuleId": 85,
      "inputId": 3,
      "color": "#c9b70e"
    },
    {
      "id": 375,
      "outputModuleId": 126,
      "outputId": 2,
      "inputModuleId": 156,
      "inputId": 0,
      "color": "#0c8e15"
    },
    {
      "id": 376,
      "outputModuleId": 127,
      "outputId": 0,
      "inputModuleId": 158,
      "inputId": 2,
      "color": "#c91847"
    },
    {
      "id": 377,
      "outputModuleId": 127,
      "outputId": 2,
      "inputModuleId": 157,
      "inputId": 0,
      "color": "#0986ad"
    },
    {
      "id": 378,
      "outputModuleId": 157,
      "outputId": 0,
      "inputModuleId": 164,
      "inputId": 3,
      "color": "#c9b70e"
    },
    {
      "id": 379,
      "outputModuleId": 142,
      "outputId": 0,
      "inputModuleId": 159,
      "inputId": 2,
      "color": "#0c8e15"
    },
    {
      "id": 380,
      "outputModuleId": 128,
      "outputId": 0,
      "inputModuleId": 160,
      "inputId": 2,
      "color": "#c91847"
    },
    {
      "id": 381,
      "outputModuleId": 144,
      "outputId": 0,
      "inputModuleId": 161,
      "inputId": 2,
      "color": "#0986ad"
    },
    {
      "id": 382,
      "outputModuleId": 65,
      "outputId": 3,
      "inputModuleId": 164,
      "inputId": 0,
      "color": "#c9b70e"
    },
    {
      "id": 383,
      "outputModuleId": 61,
      "outputId": 1,
      "inputModuleId": 164,
      "inputId": 1,
      "color": "#0c8e15"
    },
    {
      "id": 384,
      "outputModuleId": 55,
      "outputId": 0,
      "inputModuleId": 166,
      "inputId": 0,
      "color": "#c91847"
    },
    {
      "id": 385,
      "outputModuleId": 60,
      "outputId": 1,
      "inputModuleId": 166,
      "inputId": 1,
      "color": "#0986ad"
    },
    {
      "id": 386,
      "outputModuleId": 162,
      "outputId": 0,
      "inputModuleId": 166,
      "inputId": 3,
      "color": "#c9b70e"
    },
    {
      "id": 387,
      "outputModuleId": 128,
      "outputId": 2,
      "inputModuleId": 162,
      "inputId": 0,
      "color": "#0c8e15"
    },
    {
      "id": 388,
      "outputModuleId": 55,
      "outputId": 0,
      "inputModuleId": 167,
      "inputId": 3,
      "color": "#0986ad"
    },
    {
      "id": 389,
      "outputModuleId": 167,
      "outputId": 3,
      "inputModuleId": 60,
      "inputId": 6,
      "color": "#c9b70e"
    },
    {
      "id": 390,
      "outputModuleId": 167,
      "outputId": 3,
      "inputModuleId": 60,
      "inputId": 7,
      "color": "#0c8e15"
    }
  ]
}